<svg width="240" height="240" viewBox="0 0 240 240" fill="none" xmlns="http://www.w3.org/2000/svg">
  <rect width="240" height="240" rx="120" fill="#E9F3F2"/>
  <circle cx="80" cy="101" r="35" fill="#151515"/>
  <circle cx="120" cy="82" r="44" fill="#151515"/>
  <circle cx="160" cy="101" r="35" fill="#151515"/>
  <circle cx="120" cy="124" r="52" fill="#151515"/>
  <circle cx="94" cy="116" r="8" fill="#F7FAF9"/>
  <circle cx="146" cy="116" r="8" fill="#F7FAF9"/>
  <circle cx="96" cy="118" r="3.2" fill="#151515"/>
  <circle cx="144" cy="118" r="3.2" fill="#151515"/>
  <path d="M108 140C112 148 128 148 132 140" stroke="#F7FAF9" stroke-width="6" stroke-linecap="round"/>
  <path d="M120 128C126 128 131 132 131 137C131 142 126 145 120 145C114 145 109 142 109 137C109 132 114 128 120 128Z" fill="#F7FAF9"/>
  <path d="M87 164C105 184 135 184 153 164" stroke="#151515" stroke-width="18" stroke-linecap="round"/>
  <path d="M58 145C43 161 43 190 64 201" stroke="#151515" stroke-width="20" stroke-linecap="round"/>
  <path d="M182 145C197 161 197 190 176 201" stroke="#151515" stroke-width="20" stroke-linecap="round"/>
</svg>
